<svg width="50" height="50" viewBox="0 0 50 50" fill="none" xmlns="http://www.w3.org/2000/svg">
<path fill-rule="evenodd" clip-rule="evenodd" d="M46.1344 0.23413C46.3607 0.374112 46.5475 0.569585 46.6772 0.802015C46.8068 1.03444 46.8749 1.29613 46.875 1.56225V48.4373C46.875 48.8517 46.7104 49.2491 46.4174 49.5421C46.1243 49.8351 45.7269 49.9998 45.3125 49.9998H35.9375C35.5231 49.9998 35.1257 49.8351 34.8326 49.5421C34.5396 49.2491 34.375 48.8517 34.375 48.4373V43.7498H31.25V48.4373C31.25 48.8517 31.0854 49.2491 30.7924 49.5421C30.4993 49.8351 30.1019 49.9998 29.6875 49.9998H1.5625C1.1481 49.9998 0.750671 49.8351 0.457646 49.5421C0.16462 49.2491 0 48.8517 0 48.4373V31.2498C0.000248896 30.922 0.103588 30.6025 0.29539 30.3367C0.487193 30.0709 0.757744 29.8721 1.06875 29.7685L18.75 23.8748V14.0623C18.75 13.7723 18.8307 13.4881 18.983 13.2414C19.1353 12.9947 19.3533 12.7953 19.6125 12.6654L44.6125 0.16538C44.851 0.0460229 45.116 -0.0103198 45.3824 0.0017142C45.6488 0.0137482 45.9076 0.0937585 46.1344 0.23413ZM18.75 27.1685L3.125 32.3748V46.8748H18.75V27.1685ZM21.875 46.8748H28.125V42.1873C28.125 41.7729 28.2896 41.3754 28.5826 41.0824C28.8757 40.7894 29.2731 40.6248 29.6875 40.6248H35.9375C36.3519 40.6248 36.7493 40.7894 37.0424 41.0824C37.3354 41.3754 37.5 41.7729 37.5 42.1873V46.8748H43.75V4.09038L21.875 15.0279V46.8748Z" fill="#607080"/>
<path d="M6.25 34.375H9.375V37.5H6.25V34.375ZM12.5 34.375H15.625V37.5H12.5V34.375ZM6.25 40.625H9.375V43.75H6.25V40.625ZM12.5 40.625H15.625V43.75H12.5V40.625ZM25 28.125H28.125V31.25H25V28.125ZM31.25 28.125H34.375V31.25H31.25V28.125ZM25 34.375H28.125V37.5H25V34.375ZM31.25 34.375H34.375V37.5H31.25V34.375ZM37.5 28.125H40.625V31.25H37.5V28.125ZM37.5 34.375H40.625V37.5H37.5V34.375ZM25 21.875H28.125V25H25V21.875ZM31.25 21.875H34.375V25H31.25V21.875ZM37.5 21.875H40.625V25H37.5V21.875ZM25 15.625H28.125V18.75H25V15.625ZM31.25 15.625H34.375V18.75H31.25V15.625ZM37.5 15.625H40.625V18.75H37.5V15.625ZM37.5 9.375H40.625V12.5H37.5V9.375Z" fill="#607080"/>
</svg>
