<svg width="50" height="50" viewBox="0 0 50 50" fill="none" xmlns="http://www.w3.org/2000/svg">
<path d="M43.75 3.125H25C24.1715 3.12583 23.3771 3.45533 22.7912 4.0412C22.2053 4.62708 21.8758 5.42145 21.875 6.25V21.875H6.25C5.42145 21.8758 4.62708 22.2053 4.0412 22.7912C3.45533 23.3771 3.12583 24.1715 3.125 25V46.875H46.875V6.25C46.8742 5.42145 46.5447 4.62708 45.9588 4.0412C45.3729 3.45533 44.5785 3.12583 43.75 3.125ZM14.0625 43.75V32.8125H20.3125V43.75H14.0625ZM43.75 43.75H23.4375V31.25C23.4375 30.8356 23.2729 30.4382 22.9799 30.1451C22.6868 29.8521 22.2894 29.6875 21.875 29.6875H12.5C12.0856 29.6875 11.6882 29.8521 11.3951 30.1451C11.1021 30.4382 10.9375 30.8356 10.9375 31.25V43.75H6.25V25H25V6.25H43.75V43.75Z" fill="#607080"/>
<path d="M28.125 12.5H31.25V15.625H28.125V12.5ZM37.5 12.5H40.625V15.625H37.5V12.5ZM28.125 21.875H31.25V25H28.125V21.875ZM37.5 21.875H40.625V25H37.5V21.875ZM28.125 31.25H31.25V34.375H28.125V31.25ZM37.5 31.25H40.625V34.375H37.5V31.25ZM14.0625 18.75H10.9375C10.94 16.6788 11.7639 14.6931 13.2285 13.2285C14.6931 11.7639 16.6788 10.94 18.75 10.9375V14.0625C17.5072 14.0637 16.3156 14.558 15.4368 15.4368C14.558 16.3156 14.0637 17.5072 14.0625 18.75ZM6.25 18.75H3.125C3.12955 14.6074 4.77721 10.6358 7.70648 7.70648C10.6358 4.77721 14.6074 3.12955 18.75 3.125V6.25C15.4361 6.25413 12.259 7.57242 9.91573 9.91573C7.57242 12.259 6.25413 15.4361 6.25 18.75V18.75Z" fill="#607080"/>
</svg>
