<svg width="153" height="45" viewBox="0 0 153 45" fill="none" xmlns="http://www.w3.org/2000/svg">
<path d="M63.7409 19.3923V19.9025C64.4863 18.9234 65.299 18.207 66.1789 17.7535C67.0693 17.2897 68.089 17.0579 69.238 17.0579C70.3561 17.0579 71.3552 17.3001 72.2351 17.7844C73.115 18.2688 73.7725 18.9542 74.2072 19.8407C74.4867 20.356 74.6679 20.9125 74.7507 21.5104C74.8336 22.1081 74.8749 22.8709 74.8749 23.7985V31.6522C74.8749 32.4973 74.6782 33.1364 74.2849 33.5692C73.9019 34.0021 73.3998 34.2185 72.7786 34.2185C72.1471 34.2185 71.6346 33.997 71.2413 33.5538C70.8478 33.1105 70.6511 32.4767 70.6511 31.6522V24.6178C70.6511 23.2264 70.4545 22.1648 70.0611 21.4331C69.6781 20.691 68.9068 20.32 67.7473 20.32C66.9916 20.32 66.3031 20.5466 65.682 21.0001C65.0608 21.4434 64.6054 22.0566 64.3155 22.8399C64.1085 23.4686 64.0049 24.6435 64.0049 26.3648V31.6522C64.0049 32.5077 63.8031 33.1518 63.3993 33.5847C63.0059 34.0073 62.4935 34.2185 61.862 34.2185C61.2512 34.2185 60.7491 33.997 60.3558 33.5538C59.9623 33.1105 59.7656 32.4767 59.7656 31.6522V19.4542C59.7656 18.6502 59.9416 18.0525 60.2935 17.6607C60.6456 17.2588 61.127 17.0579 61.7378 17.0579C62.1105 17.0579 62.4469 17.1454 62.7471 17.3207C63.0474 17.4959 63.2855 17.7587 63.4615 18.1092C63.6477 18.4595 63.7409 18.8873 63.7409 19.3923ZM90.947 26.674H82.6547C82.6652 27.6326 82.8567 28.4777 83.2294 29.2094C83.6124 29.9412 84.1145 30.4927 84.7356 30.8637C85.3671 31.2347 86.0607 31.4203 86.8165 31.4203C87.3237 31.4203 87.7844 31.3636 88.1985 31.2502C88.623 31.1265 89.0318 30.941 89.4253 30.6936C89.8186 30.436 90.181 30.1629 90.5122 29.8743C90.8435 29.5856 91.2731 29.194 91.8011 28.6993C92.0185 28.5138 92.3291 28.4209 92.7328 28.4209C93.1676 28.4209 93.5196 28.5395 93.7888 28.7766C94.0579 29.0136 94.1925 29.3487 94.1925 29.7814C94.1925 30.1629 94.0424 30.6112 93.7422 31.1265C93.4419 31.6315 92.9865 32.1211 92.3757 32.5952C91.7752 33.0591 91.0143 33.4456 90.0929 33.7548C89.182 34.064 88.1312 34.2185 86.9407 34.2185C84.218 34.2185 82.101 33.4456 80.5894 31.8995C79.078 30.3535 78.3223 28.2561 78.3223 25.6073C78.3223 24.3602 78.5087 23.2058 78.8813 22.1442C79.254 21.0723 79.7975 20.155 80.5118 19.3923C81.2262 18.6296 82.1061 18.0473 83.1516 17.6453C84.1972 17.2331 85.3567 17.0269 86.63 17.0269C88.2865 17.0269 89.7047 17.3774 90.8849 18.0782C92.0754 18.7687 92.9657 19.6655 93.5558 20.7683C94.146 21.8711 94.4409 22.9945 94.4409 24.1385C94.4409 25.2001 94.1355 25.8907 93.5248 26.2102C92.914 26.5194 92.0548 26.674 90.947 26.674ZM82.6547 24.2778H90.3414C90.2379 22.8347 89.8445 21.7577 89.1612 21.0465C88.4883 20.3251 87.598 19.9644 86.4903 19.9644C85.4344 19.9644 84.5648 20.3303 83.8815 21.0621C83.2086 21.7835 82.7997 22.8553 82.6547 24.2778ZM113.898 25.6382C113.898 26.8956 113.702 28.0552 113.308 29.1167C112.915 30.1783 112.345 31.0905 111.6 31.8531C110.855 32.6158 109.964 33.2033 108.929 33.6155C107.894 34.0175 106.729 34.2185 105.435 34.2185C104.152 34.2185 102.997 34.0124 101.972 33.6001C100.947 33.1879 100.057 32.6004 99.3014 31.8377C98.556 31.0647 97.9866 30.1577 97.5933 29.1167C97.2102 28.0654 97.0187 26.9059 97.0187 25.6382C97.0187 24.3602 97.2154 23.1903 97.6088 22.1288C98.0022 21.0672 98.5664 20.1602 99.3014 19.4078C100.036 18.6554 100.927 18.0782 101.972 17.6763C103.018 17.264 104.172 17.0579 105.435 17.0579C106.719 17.0579 107.884 17.264 108.929 17.6763C109.975 18.0885 110.87 18.676 111.616 19.4387C112.361 20.2014 112.925 21.1084 113.308 22.1596C113.702 23.2109 113.898 24.3705 113.898 25.6382ZM109.643 25.6382C109.643 23.917 109.26 22.5771 108.494 21.6185C107.739 20.66 106.719 20.1808 105.435 20.1808C104.607 20.1808 103.877 20.3972 103.246 20.8301C102.614 21.2527 102.128 21.8814 101.786 22.7162C101.444 23.5511 101.274 24.5251 101.274 25.6382C101.274 26.741 101.439 27.7047 101.77 28.5292C102.112 29.3538 102.594 29.9876 103.215 30.4308C103.846 30.8637 104.586 31.0802 105.435 31.0802C106.719 31.0802 107.739 30.6009 108.494 29.6423C109.26 28.6736 109.643 27.3388 109.643 25.6382Z" fill="black" fill-opacity="0.87"/>
<path d="M116.709 29.4262L121.802 22.0208L117.516 15.4347C117.112 14.7957 116.807 14.2495 116.6 13.796C116.403 13.3321 116.305 12.889 116.305 12.4664C116.305 12.0336 116.496 11.647 116.879 11.3069C117.273 10.9565 117.749 10.7813 118.308 10.7813C118.95 10.7813 119.447 10.9719 119.799 11.3533C120.161 11.7243 120.658 12.4201 121.289 13.4404L124.706 18.9442L128.355 13.4404C128.655 12.9766 128.909 12.5798 129.116 12.25C129.333 11.9202 129.54 11.647 129.737 11.4306C129.934 11.2141 130.151 11.0544 130.389 10.9513C130.638 10.838 130.922 10.7813 131.243 10.7813C131.823 10.7813 132.294 10.9565 132.656 11.3069C133.029 11.647 133.215 12.0542 133.215 12.5283C133.215 13.2189 132.817 14.1567 132.02 15.342L127.532 22.0208L132.361 29.4262C132.796 30.0754 133.112 30.6166 133.309 31.0495C133.505 31.4721 133.604 31.874 133.604 32.2553C133.604 32.616 133.516 32.9459 133.34 33.2447C133.164 33.5436 132.915 33.7807 132.594 33.956C132.273 34.1312 131.911 34.2188 131.507 34.2188C131.073 34.2188 130.705 34.126 130.405 33.9405C130.105 33.7653 129.861 33.5437 129.675 33.2757C129.489 33.0078 129.142 32.4872 128.635 31.7143L124.628 25.4374L120.373 31.8998C120.042 32.4151 119.804 32.7758 119.659 32.9819C119.524 33.1881 119.359 33.3891 119.162 33.5849C118.965 33.7807 118.732 33.9354 118.463 34.0488C118.194 34.1621 117.878 34.2188 117.516 34.2188C116.957 34.2188 116.491 34.0488 116.118 33.7086C115.756 33.3684 115.575 32.8737 115.575 32.2244C115.575 31.4618 115.953 30.529 116.709 29.4262ZM141.29 13.5641V30.4465H150.638C151.383 30.4465 151.953 30.6269 152.346 30.9876C152.751 31.3484 152.953 31.8018 152.953 32.3481C152.953 32.9047 152.756 33.3581 152.362 33.7086C151.969 34.0487 151.394 34.2188 150.638 34.2188H139.505C138.5 34.2188 137.776 33.9971 137.331 33.5539C136.896 33.1108 136.678 32.3944 136.678 31.405V13.5641C136.678 12.6365 136.885 11.9408 137.299 11.4769C137.724 11.0132 138.278 10.7813 138.961 10.7813C139.655 10.7813 140.214 11.0132 140.638 11.4769C141.073 11.9305 141.29 12.6262 141.29 13.5641Z" fill="#1976D2"/>
<path d="M40.125 45C37.0658 45 34.0855 44.3882 31.3026 43.2039C28.5592 44.3882 25.6184 44.9803 22.5987 44.9803C22.5592 44.9803 22.5 44.9803 22.4605 44.9803C10.0855 44.9803 0 34.8947 0 22.5C0 10.1053 10.0855 0 22.5 0C34.9145 0 45 10.0855 45 22.5C45 27.0987 43.6184 31.5197 41.0132 35.2895C41.5855 36.9079 42.4145 38.4474 43.4408 39.8684C44.1513 40.8355 44.2697 42.0987 43.7368 43.1645C43.2434 44.2105 42.1776 44.9211 40.9934 44.9803C40.6776 45 40.4013 45 40.125 45ZM31.3224 41.6053C31.5197 41.6053 31.6974 41.6447 31.875 41.7237C34.4803 42.8487 37.2632 43.4211 40.125 43.4211C40.3816 43.4211 40.6184 43.4211 40.8553 43.4013H40.875C41.4671 43.3816 42.0197 43.0066 42.2763 42.4737C42.5526 41.9211 42.4934 41.2697 42.1382 40.7763C40.9934 39.1974 40.1053 37.4803 39.4737 35.6842C39.3355 35.2697 39.3947 34.7961 39.6513 34.4408C42.1184 30.9276 43.4013 26.7829 43.4013 22.4803C43.4013 10.9539 34.0263 1.55921 22.4803 1.55921C10.9342 1.55921 1.57895 10.9539 1.57895 22.5C1.57895 34.0461 10.9539 43.4211 22.5 43.4211C25.3816 43.4211 28.1645 42.8684 30.7697 41.7434C30.9474 41.6447 31.125 41.6053 31.3224 41.6053Z" fill="#1976D2"/>
<path d="M12.7108 22.7616C12.4064 21.3737 13.3331 20.8822 13.8345 20.8099C15.6324 19.9825 16.6497 21.7663 16.9337 22.7616C18.0791 25.8978 19.2233 24.6467 19.6523 23.6291C24.4369 15.4383 35.9999 12.0019 33.227 14.1038C19.2898 24.5966 22.6789 30.3352 19.2717 29.9849C15.8644 29.6346 13.0914 24.4966 12.7108 22.7616Z" fill="#1976D2"/>
</svg>
