<svg width="90" height="90" viewBox="0 0 90 90" fill="none" xmlns="http://www.w3.org/2000/svg">
<circle cx="45" cy="45" r="45" fill="#1976D2"/>
<path d="M64.5833 70C61.1842 70 57.8728 69.3202 54.7807 68.0044C51.7325 69.3202 48.4649 69.9781 45.1096 69.9781C45.0658 69.9781 45 69.9781 44.9561 69.9781C31.2061 69.9781 20 58.7719 20 45C20 31.2281 31.2061 20 45 20C58.7939 20 70 31.2061 70 45C70 50.1096 68.4649 55.0219 65.5702 59.2105C66.2061 61.0088 67.1272 62.7193 68.2675 64.2982C69.057 65.3728 69.1886 66.7763 68.5965 67.9605C68.0482 69.1228 66.864 69.9123 65.5482 69.9781C65.1974 70 64.8904 70 64.5833 70ZM54.8026 66.2281C55.0219 66.2281 55.2193 66.2719 55.4167 66.3596C58.3114 67.6096 61.4035 68.2456 64.5833 68.2456C64.8684 68.2456 65.1316 68.2456 65.3947 68.2237H65.4167C66.0746 68.2018 66.6886 67.7851 66.9737 67.193C67.2807 66.5789 67.2149 65.8553 66.8202 65.307C65.5482 63.5526 64.5614 61.6447 63.8596 59.6491C63.7061 59.1886 63.7719 58.6623 64.057 58.2675C66.7982 54.364 68.2237 49.7588 68.2237 44.9781C68.2237 32.1711 57.807 21.7325 44.9781 21.7325C32.1491 21.7325 21.7544 32.1711 21.7544 45C21.7544 57.8289 32.1711 68.2456 45 68.2456C48.2018 68.2456 51.2939 67.6316 54.1886 66.3816C54.386 66.2719 54.5833 66.2281 54.8026 66.2281Z" fill="white"/>
<path d="M34.1231 45.2907C33.7848 43.7485 34.8145 43.2024 35.3717 43.1221C37.3693 42.2027 38.4997 44.1847 38.8152 45.2907C40.0879 48.7753 41.3593 47.3852 41.8358 46.2545C47.1522 37.1537 59.9999 33.3354 56.9189 35.6708C41.4331 47.3296 45.1988 53.7057 41.413 53.3165C37.6271 52.9273 34.546 47.2184 34.1231 45.2907Z" fill="white"/>
</svg>
